<?xml version="1.0" standalone="no"?>
<!DOCTYPE svg PUBLIC "-//W3C//DTD SVG 20010904//EN"
 "http://www.w3.org/TR/2001/REC-SVG-20010904/DTD/svg10.dtd">
<svg version="1.0" xmlns="http://www.w3.org/2000/svg"
 width="1536.000000pt" height="1024.000000pt" viewBox="0 0 1536.000000 1024.000000"
 preserveAspectRatio="xMidYMid meet">
<g transform="translate(0.000000,1024.000000) scale(0.100000,-0.100000)" fill="#262626" stroke="none">
<path d="M0 6354 l0 -3887 42 7 c24 4 154 7 290 6 l248 -1 63 54 c85 72 172
137 183 137 5 0 26 -11 45 -24 60 -41 78 -41 206 -1 83 26 129 47 158 71 l42
34 83 -25 c46 -14 95 -25 109 -25 14 0 76 16 136 35 61 19 116 35 123 35 7 0
31 -20 53 -44 34 -37 51 -47 119 -66 78 -22 93 -22 190 -5 34 7 38 4 123 -89
49 -53 122 -121 162 -151 l73 -55 80 0 c113 0 132 12 222 133 65 88 79 102
105 103 17 1 75 23 130 49 133 62 228 100 295 115 67 15 84 23 137 66 60 49
84 51 183 14 47 -18 130 -38 185 -46 127 -17 133 -19 141 -27 4 -4 28 -7 53
-7 30 0 61 -9 90 -25 61 -35 92 -32 154 14 48 36 65 42 207 71 166 33 226 59
256 109 14 24 32 32 138 61 164 44 166 46 286 141 l105 85 50 -28 c28 -15 57
-28 66 -28 9 0 45 13 80 29 35 16 78 32 96 36 29 6 35 2 73 -47 23 -29 46 -54
51 -56 4 -2 39 22 77 52 l69 56 92 0 c90 0 95 1 161 40 63 37 72 46 114 122
25 46 50 90 55 98 9 12 27 -1 99 -73 83 -82 94 -90 182 -123 52 -19 133 -45
180 -56 l85 -22 155 -155 c85 -85 180 -188 210 -227 30 -40 109 -130 175 -201
66 -71 129 -142 140 -157 21 -29 21 -29 73 -17 48 12 56 18 105 85 28 39 72
102 97 139 l45 68 45 -5 c25 -3 78 -12 118 -21 41 -9 80 -15 88 -13 16 3 94
166 135 280 13 38 26 68 29 68 24 0 297 -93 314 -107 11 -10 64 -61 117 -114
105 -105 190 -169 227 -169 13 0 49 7 79 16 37 11 72 14 102 10 25 -4 84 -9
131 -12 66 -4 104 -14 166 -40 45 -19 97 -34 116 -34 25 0 45 -9 69 -31 70
-63 71 -63 128 -34 54 27 59 34 108 170 14 39 29 75 34 81 5 6 46 16 91 24 84
13 168 44 168 62 0 21 75 178 85 178 6 0 48 -16 94 -35 115 -48 150 -47 251
10 44 25 82 45 86 45 4 0 22 -11 41 -25 18 -14 48 -37 67 -51 l34 -25 36 64
c20 35 44 72 55 81 18 16 21 14 77 -58 l59 -76 100 -31 c112 -36 127 -47 241
-181 41 -48 112 -116 158 -151 l84 -65 118 -21 c168 -30 185 -35 235 -64 48
-27 153 -57 209 -58 19 0 98 0 175 0 139 1 141 1 245 42 129 50 202 59 258 30
53 -27 78 -19 188 61 125 89 137 96 177 103 31 6 43 2 84 -27 26 -19 71 -43
98 -52 28 -10 64 -26 82 -36 26 -15 38 -17 72 -8 23 6 43 9 45 7 2 -2 24 -45
50 -96 25 -50 49 -94 54 -97 5 -3 38 25 75 62 49 50 76 89 107 154 l41 87 91
32 c85 31 92 36 130 88 81 112 124 167 181 236 l58 70 76 11 75 11 22 -33 c23
-36 61 -58 79 -47 7 3 56 37 109 75 53 37 100 68 103 68 4 0 41 -25 82 -55
l76 -55 85 0 c82 0 89 2 151 39 69 41 112 55 199 66 l52 7 0 3539 0 3539
-7680 0 -7680 0 0 -3886z"/>
</g>
</svg>