<svg xmlns="http://www.w3.org/2000/svg" viewBox="0 0 500 500" xmlns:bx="https://boxy-svg.com">
  <defs>
    <bx:export>
      <bx:file format="svg"></bx:file>
    </bx:export>
  </defs>
  <g transform="matrix(0.08261, 0, 0, 0.08261, -8.251541, -165.299164)" fill="#262626" stroke="none" style="">
    <path d="M 96.748 5086.27 L 96.748 2088 L 113.316 2093.4 C 122.784 2096.49 174.083 2098.8 227.739 2098.03 L 325.582 2097.26 L 350.437 2138.91 C 383.973 2194.44 418.298 2244.58 422.638 2244.58 C 424.61 2244.58 432.897 2236.1 440.393 2226.08 C 464.064 2194.44 471.166 2194.44 521.667 2225.3 C 554.413 2245.35 572.563 2261.55 584.005 2280.07 L 600.574 2306.3 L 633.321 2287.01 C 651.469 2276.21 670.802 2267.72 676.325 2267.72 C 681.848 2267.72 706.311 2280.07 729.983 2294.73 C 754.049 2309.37 775.749 2321.72 778.511 2321.72 C 781.273 2321.72 790.738 2306.3 799.425 2287.78 C 812.832 2259.24 819.547 2251.52 846.373 2236.88 C 877.145 2219.9 883.065 2219.9 921.336 2233.02 C 934.755 2238.41 936.331 2236.1 969.861 2164.37 C 989.189 2123.48 1017.99 2071.03 1033.77 2047.88 L 1062.57 2005.46 L 1094.15 2005.46 C 1138.72 2005.46 1146.21 2014.72 1181.73 2108.05 C 1207.37 2175.93 1212.89 2186.73 1223.14 2187.5 C 1229.86 2188.27 1252.74 2205.25 1274.44 2225.3 C 1326.92 2273.13 1364.42 2302.43 1390.83 2314 C 1417.27 2325.58 1423.98 2331.75 1444.89 2364.92 C 1468.56 2402.71 1478.04 2404.26 1517.09 2375.71 C 1535.63 2361.84 1568.38 2346.4 1590.08 2340.23 C 1640.18 2327.12 1642.55 2325.58 1645.7 2319.4 C 1647.29 2316.32 1656.75 2314 1666.61 2314 C 1678.45 2314 1690.69 2307.07 1702.11 2294.73 C 1726.19 2267.72 1738.43 2270.04 1762.89 2305.53 C 1781.82 2333.29 1788.53 2337.92 1844.55 2360.29 C 1910.05 2385.74 1933.72 2405.8 1945.56 2444.36 C 1951.09 2462.88 1958.18 2469.05 2000.01 2491.42 C 2064.71 2525.36 2065.49 2526.9 2112.86 2600.18 L 2154.27 2665.75 L 2173.98 2644.15 C 2185.05 2632.57 2196.49 2622.55 2200.04 2622.55 C 2203.59 2622.55 2217.79 2632.57 2231.59 2644.92 C 2245.41 2657.26 2262.38 2669.6 2269.47 2672.69 C 2280.91 2677.32 2283.28 2674.23 2298.27 2636.43 C 2307.35 2614.07 2316.42 2594.78 2318.39 2593.24 C 2319.97 2591.7 2333.78 2610.21 2348.77 2633.36 L 2376 2676.55 L 2412.31 2676.55 C 2447.81 2676.55 2449.78 2677.32 2475.81 2707.4 C 2500.67 2735.94 2504.23 2742.88 2520.8 2801.51 C 2530.66 2836.98 2540.52 2870.93 2542.5 2877.1 C 2546.05 2886.36 2553.15 2876.33 2581.55 2820.79 C 2614.29 2757.54 2618.64 2751.37 2653.36 2725.91 C 2673.88 2711.25 2705.83 2691.21 2724.38 2682.72 L 2757.92 2665.75 L 2819.07 2546.19 C 2852.61 2480.62 2890.08 2401.17 2901.93 2371.09 C 2913.75 2340.23 2944.93 2270.81 2970.96 2216.05 C 2997 2161.28 3021.86 2106.51 3026.21 2094.94 C 3034.48 2072.57 3034.48 2072.57 3055.01 2081.83 C 3073.94 2091.09 3077.09 2095.71 3096.43 2147.39 C 3107.48 2177.47 3124.84 2226.08 3134.69 2254.61 L 3152.45 2307.07 L 3170.21 2303.2 C 3180.08 2300.9 3200.98 2293.96 3216.76 2287.01 C 3232.94 2280.07 3248.32 2275.44 3251.47 2276.98 C 3257.79 2279.3 3288.57 2405.03 3304.74 2492.97 C 3309.88 2522.27 3315 2545.42 3316.19 2545.42 C 3325.65 2545.42 3433.36 2473.68 3440.07 2462.88 C 3444.42 2455.16 3465.32 2415.83 3486.23 2374.94 C 3527.65 2293.96 3561.2 2244.58 3575.79 2244.58 C 3580.91 2244.58 3595.12 2249.98 3606.97 2256.92 C 3621.57 2265.41 3635.37 2267.72 3647.2 2264.64 C 3657.07 2261.55 3680.35 2257.7 3698.89 2255.38 C 3724.93 2252.29 3739.92 2244.58 3764.37 2224.53 C 3782.14 2209.87 3802.64 2198.3 3810.14 2198.3 C 3820.02 2198.3 3827.89 2191.36 3837.36 2174.39 C 3864.98 2125.79 3865.38 2125.79 3887.87 2148.17 C 3909.17 2169 3911.15 2174.39 3930.48 2279.3 C 3936 2309.37 3941.92 2337.15 3943.9 2341.78 C 3945.88 2346.4 3962.04 2354.12 3979.81 2360.29 C 4012.94 2370.32 4046.09 2394.23 4046.09 2408.11 C 4046.09 2424.31 4075.67 2545.42 4079.61 2545.42 C 4081.99 2545.42 4098.55 2533.07 4116.71 2518.41 C 4162.09 2481.39 4175.9 2482.16 4215.74 2526.13 C 4233.1 2545.42 4248.1 2560.85 4249.67 2560.85 C 4251.25 2560.85 4258.35 2552.36 4265.85 2541.56 C 4272.95 2530.76 4284.79 2513.01 4292.28 2502.22 L 4305.7 2482.94 L 4319.91 2532.3 C 4327.78 2559.3 4337.27 2587.84 4341.6 2594.78 C 4348.71 2607.12 4349.88 2605.58 4371.98 2550.04 L 4395.27 2491.42 L 4434.72 2467.51 C 4478.91 2439.73 4484.82 2431.26 4529.8 2327.89 C 4545.98 2290.87 4574 2238.41 4592.14 2211.42 L 4625.27 2161.28 L 4671.83 2145.08 C 4738.12 2121.93 4744.82 2118.08 4764.55 2095.71 C 4783.49 2074.89 4824.92 2051.74 4847.02 2050.97 C 4854.5 2050.97 4885.67 2050.97 4916.05 2050.97 C 4970.88 2051.74 4971.69 2051.74 5012.71 2083.37 C 5063.61 2121.93 5092.41 2128.88 5114.49 2106.51 C 5135.42 2085.69 5145.28 2091.86 5188.68 2153.57 C 5238 2222.22 5242.72 2227.62 5258.51 2233.02 C 5270.74 2237.64 5275.48 2234.56 5291.64 2212.19 C 5301.91 2197.53 5319.66 2179.02 5330.31 2172.07 C 5341.38 2164.37 5355.57 2152.02 5362.67 2144.31 C 5372.93 2132.74 5377.66 2131.19 5391.08 2138.14 C 5400.15 2142.77 5408.04 2145.08 5408.82 2143.54 C 5409.62 2141.99 5418.31 2108.82 5428.57 2069.49 C 5438.42 2030.92 5447.9 1996.98 5449.86 1994.66 C 5451.85 1992.35 5464.86 2013.95 5479.45 2042.48 C 5498.78 2081.06 5509.44 2111.14 5521.67 2161.28 L 5537.85 2228.39 L 5573.75 2253.07 C 5607.29 2276.98 5610.04 2280.84 5625.05 2320.95 C 5656.99 2407.34 5673.97 2449.76 5696.44 2502.99 L 5719.33 2556.99 L 5749.31 2565.47 L 5778.9 2573.95 L 5787.58 2548.5 C 5796.67 2520.73 5811.65 2503.76 5818.76 2512.24 C 5821.52 2514.56 5840.85 2540.79 5861.76 2570.09 C 5882.68 2598.64 5901.21 2622.55 5902.39 2622.55 C 5903.98 2622.55 5918.58 2603.27 5934.74 2580.12 L 5964.73 2537.7 L 5998.27 2537.7 C 6030.62 2537.7 6033.39 2539.24 6057.86 2567.78 C 6085.07 2599.41 6102.04 2610.21 6136.36 2618.7 L 6156.88 2624.1 L 6156.88 5353.93 L 6156.88 8083.75 L 3126.81 8083.75 L 96.748 8083.75 L 96.748 5086.27 Z" style=""></path>
  </g>
</svg>